<svg xmlns="http://www.w3.org/2000/svg"><symbol id="icon-add-instance" viewBox="0 0 24 24"><rect width="18" height="18" x="3" y="3" rx="2" ry="2"></rect><path d="M12 8v8M8 12h8"></path></symbol><symbol id="icon-add" viewBox="0 0 24 24"><path d="M12 5v14M5 12h14"></path></symbol><symbol id="icon-delete-instance" viewBox="0 0 24 24"><rect width="18" height="18" x="3" y="3" rx="2" ry="2"></rect><path d="M8 12h8"></path></symbol><symbol id="icon-edit" viewBox="0 0 24 24"><path d="M12 20h9M16.5 3.5a2.121 2.121 0 0 1 3 3L7 19l-4 1 1-4z"></path></symbol><symbol id="icon-refresh" viewBox="0 0 24 24"><path d="M23 4v6h-6"></path><path d="M20.49 15a9 9 0 1 1-2.12-9.36L23 10"></path></symbol><symbol id="icon-remove" viewBox="0 0 24 24"><path d="M18 6 6 18M6 6l12 12"></path></symbol><symbol id="icon-retry" viewBox="0 0 24 24"><path d="m17 1 4 4-4 4"></path><path d="M3 11V9a4 4 0 0 1 4-4h14M7 23l-4-4 4-4"></path><path d="M21 13v2a4 4 0 0 1-4 4H3"></path></symbol><symbol id="icon-sorted-asc" viewBox="0 0 24 24"><path d="M4 12h10M4 18h16M4 6h4"></path></symbol><symbol id="icon-sorted-dsc" viewBox="0 0 24 24"><path d="M4 12h10M4 6h16M4 18h4"></path></symbol><symbol id="icon-unsorted" viewBox="0 0 24 24"><path d="M4 18h10M4 12h16M4 6h6"></path></symbol></svg>